<mxfile host="Electron" modified="2023-07-31T16:00:17.654Z" agent="Mozilla/5.0 (X11; Linux x86_64) AppleWebKit/537.36 (KHTML, like Gecko) draw.io/21.5.1 Chrome/112.0.5615.204 Electron/24.6.0 Safari/537.36" etag="2xO0EBgoJD7F7955YbL6" version="21.5.1" type="device" pages="4">
  <diagram name="DynamoDB" id="hOYrPMHe53jdgB96kfEC">
    <mxGraphModel dx="1379" dy="305" grid="0" gridSize="10" guides="1" tooltips="1" connect="1" arrows="1" fold="1" page="1" pageScale="1" pageWidth="827" pageHeight="1169" math="0" shadow="0">
      <root>
        <mxCell id="0" />
        <mxCell id="1" parent="0" />
        <mxCell id="Zll8okaNvGIyy9fYzjqK-8" value="pk=USER#&amp;lt;email&amp;gt; sk=ROOM&amp;lt;roomid&amp;gt;" style="swimlane;fontStyle=0;childLayout=stackLayout;horizontal=1;startSize=30;horizontalStack=0;resizeParent=1;resizeParentMax=0;resizeLast=0;collapsible=1;marginBottom=0;whiteSpace=wrap;html=1;" parent="1" vertex="1">
          <mxGeometry x="40" y="50" width="280" height="180" as="geometry" />
        </mxCell>
        <mxCell id="Zll8okaNvGIyy9fYzjqK-9" value="latest_message" style="text;strokeColor=none;fillColor=none;align=left;verticalAlign=middle;spacingLeft=4;spacingRight=4;overflow=hidden;points=[[0,0.5],[1,0.5]];portConstraint=eastwest;rotatable=0;whiteSpace=wrap;html=1;" parent="Zll8okaNvGIyy9fYzjqK-8" vertex="1">
          <mxGeometry y="30" width="280" height="30" as="geometry" />
        </mxCell>
        <mxCell id="Zll8okaNvGIyy9fYzjqK-13" value="latest_message_time" style="text;strokeColor=none;fillColor=none;align=left;verticalAlign=middle;spacingLeft=4;spacingRight=4;overflow=hidden;points=[[0,0.5],[1,0.5]];portConstraint=eastwest;rotatable=0;whiteSpace=wrap;html=1;" parent="Zll8okaNvGIyy9fYzjqK-8" vertex="1">
          <mxGeometry y="60" width="280" height="30" as="geometry" />
        </mxCell>
        <mxCell id="Zll8okaNvGIyy9fYzjqK-10" value="is_group" style="text;strokeColor=none;fillColor=none;align=left;verticalAlign=middle;spacingLeft=4;spacingRight=4;overflow=hidden;points=[[0,0.5],[1,0.5]];portConstraint=eastwest;rotatable=0;whiteSpace=wrap;html=1;" parent="Zll8okaNvGIyy9fYzjqK-8" vertex="1">
          <mxGeometry y="90" width="280" height="30" as="geometry" />
        </mxCell>
        <mxCell id="Zll8okaNvGIyy9fYzjqK-11" value="title" style="text;strokeColor=none;fillColor=none;align=left;verticalAlign=middle;spacingLeft=4;spacingRight=4;overflow=hidden;points=[[0,0.5],[1,0.5]];portConstraint=eastwest;rotatable=0;whiteSpace=wrap;html=1;" parent="Zll8okaNvGIyy9fYzjqK-8" vertex="1">
          <mxGeometry y="120" width="280" height="30" as="geometry" />
        </mxCell>
        <mxCell id="Zll8okaNvGIyy9fYzjqK-12" value="notifications" style="text;strokeColor=none;fillColor=none;align=left;verticalAlign=middle;spacingLeft=4;spacingRight=4;overflow=hidden;points=[[0,0.5],[1,0.5]];portConstraint=eastwest;rotatable=0;whiteSpace=wrap;html=1;" parent="Zll8okaNvGIyy9fYzjqK-8" vertex="1">
          <mxGeometry y="150" width="280" height="30" as="geometry" />
        </mxCell>
        <mxCell id="Zll8okaNvGIyy9fYzjqK-14" value="pk=ROOM#&amp;lt;roomid&amp;gt; sk=begins_with(MSG#)" style="swimlane;fontStyle=0;childLayout=stackLayout;horizontal=1;startSize=26;fillColor=none;horizontalStack=0;resizeParent=1;resizeParentMax=0;resizeLast=0;collapsible=1;marginBottom=0;html=1;" parent="1" vertex="1">
          <mxGeometry x="443" y="139" width="300" height="130" as="geometry" />
        </mxCell>
        <mxCell id="Zll8okaNvGIyy9fYzjqK-15" value="message" style="text;strokeColor=none;fillColor=none;align=left;verticalAlign=top;spacingLeft=4;spacingRight=4;overflow=hidden;rotatable=0;points=[[0,0.5],[1,0.5]];portConstraint=eastwest;whiteSpace=wrap;html=1;" parent="Zll8okaNvGIyy9fYzjqK-14" vertex="1">
          <mxGeometry y="26" width="300" height="26" as="geometry" />
        </mxCell>
        <mxCell id="Zll8okaNvGIyy9fYzjqK-16" value="created_at" style="text;strokeColor=none;fillColor=none;align=left;verticalAlign=top;spacingLeft=4;spacingRight=4;overflow=hidden;rotatable=0;points=[[0,0.5],[1,0.5]];portConstraint=eastwest;whiteSpace=wrap;html=1;" parent="Zll8okaNvGIyy9fYzjqK-14" vertex="1">
          <mxGeometry y="52" width="300" height="26" as="geometry" />
        </mxCell>
        <mxCell id="qtQuN2bXV_m3LNO4zjVk-1" value="sender_id" style="text;strokeColor=none;fillColor=none;align=left;verticalAlign=top;spacingLeft=4;spacingRight=4;overflow=hidden;rotatable=0;points=[[0,0.5],[1,0.5]];portConstraint=eastwest;whiteSpace=wrap;html=1;" parent="Zll8okaNvGIyy9fYzjqK-14" vertex="1">
          <mxGeometry y="78" width="300" height="26" as="geometry" />
        </mxCell>
        <mxCell id="2N42eh-mlsE-WqFzI-f9-3" value="key" style="text;strokeColor=none;fillColor=none;align=left;verticalAlign=top;spacingLeft=4;spacingRight=4;overflow=hidden;rotatable=0;points=[[0,0.5],[1,0.5]];portConstraint=eastwest;whiteSpace=wrap;html=1;" parent="Zll8okaNvGIyy9fYzjqK-14" vertex="1">
          <mxGeometry y="104" width="300" height="26" as="geometry" />
        </mxCell>
        <mxCell id="2N42eh-mlsE-WqFzI-f9-9" value="Rooms" style="text;html=1;strokeColor=none;fillColor=none;align=center;verticalAlign=middle;whiteSpace=wrap;rounded=0;" parent="1" vertex="1">
          <mxGeometry x="138" y="15" width="60" height="30" as="geometry" />
        </mxCell>
        <mxCell id="2N42eh-mlsE-WqFzI-f9-10" value="Messages" style="text;html=1;strokeColor=none;fillColor=none;align=center;verticalAlign=middle;whiteSpace=wrap;rounded=0;" parent="1" vertex="1">
          <mxGeometry x="563" y="98" width="60" height="30" as="geometry" />
        </mxCell>
        <mxCell id="2N42eh-mlsE-WqFzI-f9-11" style="edgeStyle=orthogonalEdgeStyle;rounded=0;orthogonalLoop=1;jettySize=auto;html=1;exitX=1;exitY=0.5;exitDx=0;exitDy=0;entryX=0;entryY=0.116;entryDx=0;entryDy=0;entryPerimeter=0;" parent="1" source="Zll8okaNvGIyy9fYzjqK-10" target="Zll8okaNvGIyy9fYzjqK-14" edge="1">
          <mxGeometry relative="1" as="geometry" />
        </mxCell>
        <mxCell id="2N42eh-mlsE-WqFzI-f9-13" value="&amp;lt;user_cognito_uuid&amp;gt;" style="rounded=0;whiteSpace=wrap;html=1;" parent="1" vertex="1">
          <mxGeometry x="-77" y="381" width="145" height="222" as="geometry" />
        </mxCell>
        <mxCell id="2N42eh-mlsE-WqFzI-f9-15" value="Pk" style="rounded=0;whiteSpace=wrap;html=1;" parent="1" vertex="1">
          <mxGeometry x="-77" y="344" width="145" height="37" as="geometry" />
        </mxCell>
        <mxCell id="2N42eh-mlsE-WqFzI-f9-17" value="" style="rounded=0;whiteSpace=wrap;html=1;" parent="1" vertex="1">
          <mxGeometry x="-751" y="47" width="160" height="206" as="geometry" />
        </mxCell>
        <mxCell id="2N42eh-mlsE-WqFzI-f9-18" value="Search User" style="text;html=1;strokeColor=none;fillColor=none;align=center;verticalAlign=middle;whiteSpace=wrap;rounded=0;" parent="1" vertex="1">
          <mxGeometry x="-737" y="15" width="128" height="30" as="geometry" />
        </mxCell>
        <mxCell id="2N42eh-mlsE-WqFzI-f9-22" value="" style="group" parent="1" vertex="1" connectable="0">
          <mxGeometry x="-729" y="95" width="95" height="30" as="geometry" />
        </mxCell>
        <mxCell id="2N42eh-mlsE-WqFzI-f9-19" value="" style="ellipse;whiteSpace=wrap;html=1;aspect=fixed;" parent="2N42eh-mlsE-WqFzI-f9-22" vertex="1">
          <mxGeometry width="30" height="30" as="geometry" />
        </mxCell>
        <mxCell id="2N42eh-mlsE-WqFzI-f9-21" value="user123@" style="text;html=1;strokeColor=none;fillColor=none;align=center;verticalAlign=middle;whiteSpace=wrap;rounded=0;" parent="2N42eh-mlsE-WqFzI-f9-22" vertex="1">
          <mxGeometry x="35" width="60" height="30" as="geometry" />
        </mxCell>
        <mxCell id="2N42eh-mlsE-WqFzI-f9-23" value="" style="group" parent="1" vertex="1" connectable="0">
          <mxGeometry x="-729" y="205" width="95" height="30" as="geometry" />
        </mxCell>
        <mxCell id="2N42eh-mlsE-WqFzI-f9-24" value="" style="ellipse;whiteSpace=wrap;html=1;aspect=fixed;" parent="2N42eh-mlsE-WqFzI-f9-23" vertex="1">
          <mxGeometry width="30" height="30" as="geometry" />
        </mxCell>
        <mxCell id="2N42eh-mlsE-WqFzI-f9-25" value="user123@" style="text;html=1;strokeColor=none;fillColor=none;align=center;verticalAlign=middle;whiteSpace=wrap;rounded=0;" parent="2N42eh-mlsE-WqFzI-f9-23" vertex="1">
          <mxGeometry x="35" width="60" height="30" as="geometry" />
        </mxCell>
        <mxCell id="2N42eh-mlsE-WqFzI-f9-26" value="" style="group" parent="1" vertex="1" connectable="0">
          <mxGeometry x="-729" y="131" width="95" height="30" as="geometry" />
        </mxCell>
        <mxCell id="2N42eh-mlsE-WqFzI-f9-27" value="" style="ellipse;whiteSpace=wrap;html=1;aspect=fixed;" parent="2N42eh-mlsE-WqFzI-f9-26" vertex="1">
          <mxGeometry width="30" height="30" as="geometry" />
        </mxCell>
        <mxCell id="2N42eh-mlsE-WqFzI-f9-28" value="user123@" style="text;html=1;strokeColor=none;fillColor=none;align=center;verticalAlign=middle;whiteSpace=wrap;rounded=0;" parent="2N42eh-mlsE-WqFzI-f9-26" vertex="1">
          <mxGeometry x="35" width="60" height="30" as="geometry" />
        </mxCell>
        <mxCell id="2N42eh-mlsE-WqFzI-f9-29" value="" style="group" parent="1" vertex="1" connectable="0">
          <mxGeometry x="-729" y="166" width="95" height="30" as="geometry" />
        </mxCell>
        <mxCell id="2N42eh-mlsE-WqFzI-f9-30" value="" style="ellipse;whiteSpace=wrap;html=1;aspect=fixed;" parent="2N42eh-mlsE-WqFzI-f9-29" vertex="1">
          <mxGeometry width="30" height="30" as="geometry" />
        </mxCell>
        <mxCell id="2N42eh-mlsE-WqFzI-f9-31" value="user123@" style="text;html=1;strokeColor=none;fillColor=none;align=center;verticalAlign=middle;whiteSpace=wrap;rounded=0;" parent="2N42eh-mlsE-WqFzI-f9-29" vertex="1">
          <mxGeometry x="35" width="60" height="30" as="geometry" />
        </mxCell>
        <mxCell id="2N42eh-mlsE-WqFzI-f9-33" value="Search" style="rounded=1;whiteSpace=wrap;html=1;" parent="1" vertex="1">
          <mxGeometry x="-738" y="62" width="130" height="22" as="geometry" />
        </mxCell>
        <mxCell id="2N42eh-mlsE-WqFzI-f9-34" value="" style="rounded=0;whiteSpace=wrap;html=1;" parent="1" vertex="1">
          <mxGeometry x="-563" y="47.5" width="228" height="205" as="geometry" />
        </mxCell>
        <mxCell id="2N42eh-mlsE-WqFzI-f9-35" value="" style="rounded=0;whiteSpace=wrap;html=1;" parent="1" vertex="1">
          <mxGeometry x="-563" y="47" width="106" height="41" as="geometry" />
        </mxCell>
        <mxCell id="VMLvMvq_x3GAcBnYwEn--1" value="ROOM#&amp;lt;roomId&amp;gt;" style="rounded=0;whiteSpace=wrap;html=1;" parent="1" vertex="1">
          <mxGeometry x="-78" y="603" width="145" height="301" as="geometry" />
        </mxCell>
        <mxCell id="VMLvMvq_x3GAcBnYwEn--3" value="MSG&amp;lt;DATE&amp;gt;" style="rounded=0;whiteSpace=wrap;html=1;" parent="1" vertex="1">
          <mxGeometry x="68" y="689" width="118" height="43" as="geometry" />
        </mxCell>
        <mxCell id="VMLvMvq_x3GAcBnYwEn--4" value="MSG&amp;lt;DATE&amp;gt;" style="rounded=0;whiteSpace=wrap;html=1;" parent="1" vertex="1">
          <mxGeometry x="68" y="646" width="118" height="43" as="geometry" />
        </mxCell>
        <mxCell id="VMLvMvq_x3GAcBnYwEn--5" value="MSG&amp;lt;DATE&amp;gt;" style="rounded=0;whiteSpace=wrap;html=1;" parent="1" vertex="1">
          <mxGeometry x="68" y="603" width="118" height="43" as="geometry" />
        </mxCell>
        <mxCell id="VMLvMvq_x3GAcBnYwEn--6" value="USER#&amp;lt;email2&amp;gt;" style="rounded=0;whiteSpace=wrap;html=1;" parent="1" vertex="1">
          <mxGeometry x="67" y="818" width="118" height="43" as="geometry" />
        </mxCell>
        <mxCell id="VMLvMvq_x3GAcBnYwEn--7" value="USER#&amp;lt;email1&amp;gt;" style="rounded=0;whiteSpace=wrap;html=1;" parent="1" vertex="1">
          <mxGeometry x="67" y="775" width="118" height="43" as="geometry" />
        </mxCell>
        <mxCell id="5lrYF_Eyku40ln3LLJAb-4" value="" style="edgeStyle=orthogonalEdgeStyle;rounded=0;orthogonalLoop=1;jettySize=auto;html=1;exitX=0.75;exitY=1;exitDx=0;exitDy=0;" parent="1" source="VMLvMvq_x3GAcBnYwEn--6" target="5lrYF_Eyku40ln3LLJAb-2" edge="1">
          <mxGeometry relative="1" as="geometry">
            <mxPoint x="156" y="861" as="sourcePoint" />
            <mxPoint x="126" y="861" as="targetPoint" />
          </mxGeometry>
        </mxCell>
        <mxCell id="5lrYF_Eyku40ln3LLJAb-2" value="USER#&amp;lt;email3&amp;gt;" style="rounded=0;whiteSpace=wrap;html=1;" parent="1" vertex="1">
          <mxGeometry x="68" y="861" width="118" height="43" as="geometry" />
        </mxCell>
        <mxCell id="5lrYF_Eyku40ln3LLJAb-5" value="MSG&amp;lt;DATE&amp;gt;" style="rounded=0;whiteSpace=wrap;html=1;" parent="1" vertex="1">
          <mxGeometry x="67" y="732" width="118" height="43" as="geometry" />
        </mxCell>
        <mxCell id="5lrYF_Eyku40ln3LLJAb-8" value="gsiPk" style="rounded=0;whiteSpace=wrap;html=1;" parent="1" vertex="1">
          <mxGeometry x="186" y="344" width="118" height="37" as="geometry" />
        </mxCell>
        <mxCell id="5lrYF_Eyku40ln3LLJAb-9" value="sk" style="rounded=0;whiteSpace=wrap;html=1;" parent="1" vertex="1">
          <mxGeometry x="68" y="344" width="118" height="37" as="geometry" />
        </mxCell>
        <mxCell id="5lrYF_Eyku40ln3LLJAb-10" value="Attributes" style="rounded=0;whiteSpace=wrap;html=1;" parent="1" vertex="1">
          <mxGeometry x="68" y="381" width="118" height="37" as="geometry" />
        </mxCell>
        <mxCell id="5lrYF_Eyku40ln3LLJAb-11" value="&amp;lt;user_email&amp;gt;" style="rounded=0;whiteSpace=wrap;html=1;" parent="1" vertex="1">
          <mxGeometry x="186" y="381" width="118" height="37" as="geometry" />
        </mxCell>
        <mxCell id="5lrYF_Eyku40ln3LLJAb-12" value="ROOM1#&amp;lt;roomId&amp;gt;" style="rounded=0;whiteSpace=wrap;html=1;" parent="1" vertex="1">
          <mxGeometry x="68" y="418" width="118" height="37" as="geometry" />
        </mxCell>
        <mxCell id="5lrYF_Eyku40ln3LLJAb-13" value="ROOM2#&amp;lt;roomId&amp;gt;" style="rounded=0;whiteSpace=wrap;html=1;" parent="1" vertex="1">
          <mxGeometry x="68" y="455" width="118" height="37" as="geometry" />
        </mxCell>
        <mxCell id="5lrYF_Eyku40ln3LLJAb-14" value="ROOM3#&amp;lt;roomId&amp;gt;" style="rounded=0;whiteSpace=wrap;html=1;" parent="1" vertex="1">
          <mxGeometry x="68" y="492" width="118" height="37" as="geometry" />
        </mxCell>
        <mxCell id="5lrYF_Eyku40ln3LLJAb-15" value="LatestMessage" style="rounded=0;whiteSpace=wrap;html=1;" parent="1" vertex="1">
          <mxGeometry x="304" y="344" width="118" height="37" as="geometry" />
        </mxCell>
        <mxCell id="5lrYF_Eyku40ln3LLJAb-17" value="LatestMessageDate" style="rounded=0;whiteSpace=wrap;html=1;" parent="1" vertex="1">
          <mxGeometry x="422" y="344" width="118" height="37" as="geometry" />
        </mxCell>
        <mxCell id="5lrYF_Eyku40ln3LLJAb-18" value="How are you ?" style="rounded=0;whiteSpace=wrap;html=1;" parent="1" vertex="1">
          <mxGeometry x="304" y="418" width="118" height="37" as="geometry" />
        </mxCell>
        <mxCell id="5lrYF_Eyku40ln3LLJAb-19" value="What is the weather?" style="rounded=0;whiteSpace=wrap;html=1;" parent="1" vertex="1">
          <mxGeometry x="304" y="455" width="118" height="37" as="geometry" />
        </mxCell>
        <mxCell id="5lrYF_Eyku40ln3LLJAb-20" value="Who is this ?" style="rounded=0;whiteSpace=wrap;html=1;" parent="1" vertex="1">
          <mxGeometry x="304" y="492" width="118" height="37" as="geometry" />
        </mxCell>
        <mxCell id="5lrYF_Eyku40ln3LLJAb-30" value="ROOM4#&amp;lt;roomId&amp;gt;" style="rounded=0;whiteSpace=wrap;html=1;" parent="1" vertex="1">
          <mxGeometry x="68" y="529" width="118" height="37" as="geometry" />
        </mxCell>
        <mxCell id="5lrYF_Eyku40ln3LLJAb-31" value="ROOM5#&amp;lt;roomId&amp;gt;" style="rounded=0;whiteSpace=wrap;html=1;" parent="1" vertex="1">
          <mxGeometry x="68" y="566" width="118" height="37" as="geometry" />
        </mxCell>
        <mxCell id="5lrYF_Eyku40ln3LLJAb-32" value="Elon ?" style="rounded=0;whiteSpace=wrap;html=1;" parent="1" vertex="1">
          <mxGeometry x="304" y="529" width="118" height="37" as="geometry" />
        </mxCell>
        <mxCell id="5lrYF_Eyku40ln3LLJAb-33" value="Zuck ?" style="rounded=0;whiteSpace=wrap;html=1;" parent="1" vertex="1">
          <mxGeometry x="304" y="566" width="118" height="37" as="geometry" />
        </mxCell>
        <mxCell id="5lrYF_Eyku40ln3LLJAb-36" value="Message" style="rounded=0;whiteSpace=wrap;html=1;" parent="1" vertex="1">
          <mxGeometry x="540" y="344" width="118" height="37" as="geometry" />
        </mxCell>
        <mxCell id="5lrYF_Eyku40ln3LLJAb-37" value="X" style="rounded=0;whiteSpace=wrap;html=1;" parent="1" vertex="1">
          <mxGeometry x="186" y="418" width="118" height="185" as="geometry" />
        </mxCell>
        <mxCell id="5lrYF_Eyku40ln3LLJAb-38" value="" style="rounded=0;whiteSpace=wrap;html=1;" parent="1" vertex="1">
          <mxGeometry x="304" y="381" width="118" height="37" as="geometry" />
        </mxCell>
        <mxCell id="5lrYF_Eyku40ln3LLJAb-39" value="&amp;lt;IsoDate&amp;gt;" style="rounded=0;whiteSpace=wrap;html=1;" parent="1" vertex="1">
          <mxGeometry x="422" y="418" width="118" height="37" as="geometry" />
        </mxCell>
        <mxCell id="5lrYF_Eyku40ln3LLJAb-40" value="&amp;lt;IsoDate&amp;gt;" style="rounded=0;whiteSpace=wrap;html=1;" parent="1" vertex="1">
          <mxGeometry x="422" y="455" width="118" height="37" as="geometry" />
        </mxCell>
        <mxCell id="5lrYF_Eyku40ln3LLJAb-41" value="&amp;lt;IsoDate&amp;gt;" style="rounded=0;whiteSpace=wrap;html=1;" parent="1" vertex="1">
          <mxGeometry x="422" y="492" width="118" height="37" as="geometry" />
        </mxCell>
        <mxCell id="5lrYF_Eyku40ln3LLJAb-42" value="&amp;lt;IsoDate&amp;gt;" style="rounded=0;whiteSpace=wrap;html=1;" parent="1" vertex="1">
          <mxGeometry x="422" y="529" width="118" height="37" as="geometry" />
        </mxCell>
        <mxCell id="5lrYF_Eyku40ln3LLJAb-43" value="&amp;lt;IsoDate&amp;gt;" style="rounded=0;whiteSpace=wrap;html=1;" parent="1" vertex="1">
          <mxGeometry x="422" y="566" width="118" height="37" as="geometry" />
        </mxCell>
        <mxCell id="5lrYF_Eyku40ln3LLJAb-44" value="" style="rounded=0;whiteSpace=wrap;html=1;" parent="1" vertex="1">
          <mxGeometry x="422" y="381" width="118" height="37" as="geometry" />
        </mxCell>
        <mxCell id="5lrYF_Eyku40ln3LLJAb-45" value="X" style="rounded=0;whiteSpace=wrap;html=1;" parent="1" vertex="1">
          <mxGeometry x="540" y="381" width="118" height="222" as="geometry" />
        </mxCell>
        <mxCell id="5lrYF_Eyku40ln3LLJAb-46" value="X" style="rounded=0;whiteSpace=wrap;html=1;" parent="1" vertex="1">
          <mxGeometry x="186" y="603" width="353" height="301" as="geometry" />
        </mxCell>
        <mxCell id="5lrYF_Eyku40ln3LLJAb-48" value="How are you ?" style="rounded=0;whiteSpace=wrap;html=1;" parent="1" vertex="1">
          <mxGeometry x="539" y="603" width="119" height="43" as="geometry" />
        </mxCell>
        <mxCell id="5lrYF_Eyku40ln3LLJAb-49" value="I am great and you ?" style="rounded=0;whiteSpace=wrap;html=1;" parent="1" vertex="1">
          <mxGeometry x="540" y="646" width="119" height="43" as="geometry" />
        </mxCell>
        <mxCell id="5lrYF_Eyku40ln3LLJAb-50" value="Great to hear !" style="rounded=0;whiteSpace=wrap;html=1;" parent="1" vertex="1">
          <mxGeometry x="539" y="689" width="119" height="43" as="geometry" />
        </mxCell>
        <mxCell id="5lrYF_Eyku40ln3LLJAb-52" value="X" style="rounded=0;whiteSpace=wrap;html=1;" parent="1" vertex="1">
          <mxGeometry x="540" y="732" width="118" height="172" as="geometry" />
        </mxCell>
        <mxCell id="5lrYF_Eyku40ln3LLJAb-53" value="More Atts" style="rounded=0;whiteSpace=wrap;html=1;" parent="1" vertex="1">
          <mxGeometry x="658" y="344" width="277" height="37" as="geometry" />
        </mxCell>
        <mxCell id="5lrYF_Eyku40ln3LLJAb-54" value="...." style="rounded=0;whiteSpace=wrap;html=1;" parent="1" vertex="1">
          <mxGeometry x="658" y="381" width="277" height="523" as="geometry" />
        </mxCell>
        <mxCell id="UYMrAS-IgViPouE1S63k-10" style="edgeStyle=orthogonalEdgeStyle;rounded=0;orthogonalLoop=1;jettySize=auto;html=1;entryX=0.015;entryY=0.475;entryDx=0;entryDy=0;entryPerimeter=0;" edge="1" parent="1" source="UYMrAS-IgViPouE1S63k-3" target="UYMrAS-IgViPouE1S63k-8">
          <mxGeometry relative="1" as="geometry" />
        </mxCell>
        <mxCell id="UYMrAS-IgViPouE1S63k-3" value="onCreateRoom" style="shape=parallelogram;perimeter=parallelogramPerimeter;whiteSpace=wrap;html=1;fixedSize=1;" vertex="1" parent="1">
          <mxGeometry x="1156" y="325" width="120" height="60" as="geometry" />
        </mxCell>
        <mxCell id="UYMrAS-IgViPouE1S63k-7" style="edgeStyle=orthogonalEdgeStyle;rounded=0;orthogonalLoop=1;jettySize=auto;html=1;entryX=-0.003;entryY=0.427;entryDx=0;entryDy=0;entryPerimeter=0;" edge="1" parent="1" source="UYMrAS-IgViPouE1S63k-4" target="UYMrAS-IgViPouE1S63k-6">
          <mxGeometry relative="1" as="geometry" />
        </mxCell>
        <mxCell id="UYMrAS-IgViPouE1S63k-4" value="onCreateMessage" style="shape=parallelogram;perimeter=parallelogramPerimeter;whiteSpace=wrap;html=1;fixedSize=1;" vertex="1" parent="1">
          <mxGeometry x="1143" y="418" width="120" height="60" as="geometry" />
        </mxCell>
        <mxCell id="UYMrAS-IgViPouE1S63k-6" value="When a new message is sent, update latest message on the client end for that room" style="text;html=1;strokeColor=none;fillColor=none;align=center;verticalAlign=middle;whiteSpace=wrap;rounded=0;" vertex="1" parent="1">
          <mxGeometry x="1376" y="425" width="184" height="53" as="geometry" />
        </mxCell>
        <mxCell id="UYMrAS-IgViPouE1S63k-8" value="Update room list by appending new room&amp;nbsp;" style="text;html=1;strokeColor=none;fillColor=none;align=center;verticalAlign=middle;whiteSpace=wrap;rounded=0;" vertex="1" parent="1">
          <mxGeometry x="1357" y="332" width="172" height="49" as="geometry" />
        </mxCell>
        <mxCell id="UYMrAS-IgViPouE1S63k-14" style="edgeStyle=orthogonalEdgeStyle;rounded=0;orthogonalLoop=1;jettySize=auto;html=1;entryX=-0.025;entryY=0.539;entryDx=0;entryDy=0;entryPerimeter=0;" edge="1" parent="1" source="UYMrAS-IgViPouE1S63k-11" target="UYMrAS-IgViPouE1S63k-13">
          <mxGeometry relative="1" as="geometry" />
        </mxCell>
        <mxCell id="UYMrAS-IgViPouE1S63k-11" value="QueryRooms" style="rhombus;whiteSpace=wrap;html=1;" vertex="1" parent="1">
          <mxGeometry x="1137" y="508" width="114" height="80" as="geometry" />
        </mxCell>
        <mxCell id="UYMrAS-IgViPouE1S63k-13" value="Update Latest Message for all rooms" style="text;html=1;strokeColor=none;fillColor=none;align=center;verticalAlign=middle;whiteSpace=wrap;rounded=0;" vertex="1" parent="1">
          <mxGeometry x="1426" y="520" width="130" height="52" as="geometry" />
        </mxCell>
      </root>
    </mxGraphModel>
  </diagram>
  <diagram id="qKaw5ttGeih86Q8htvzI" name="AppSync">
    <mxGraphModel dx="1436" dy="793" grid="0" gridSize="10" guides="1" tooltips="1" connect="1" arrows="1" fold="1" page="1" pageScale="1" pageWidth="827" pageHeight="1169" math="0" shadow="0">
      <root>
        <mxCell id="0" />
        <mxCell id="1" parent="0" />
        <mxCell id="qISsLF0tPLsLc5jUhSBc-6" style="edgeStyle=orthogonalEdgeStyle;rounded=0;orthogonalLoop=1;jettySize=auto;html=1;entryX=0;entryY=0.5;entryDx=0;entryDy=0;" parent="1" source="qISsLF0tPLsLc5jUhSBc-1" target="qISsLF0tPLsLc5jUhSBc-5" edge="1">
          <mxGeometry relative="1" as="geometry" />
        </mxCell>
        <mxCell id="qISsLF0tPLsLc5jUhSBc-10" value="Subscribe" style="edgeLabel;html=1;align=center;verticalAlign=middle;resizable=0;points=[];" parent="qISsLF0tPLsLc5jUhSBc-6" vertex="1" connectable="0">
          <mxGeometry x="-0.5888" y="3" relative="1" as="geometry">
            <mxPoint y="1" as="offset" />
          </mxGeometry>
        </mxCell>
        <mxCell id="qISsLF0tPLsLc5jUhSBc-1" value="" style="shape=actor;whiteSpace=wrap;html=1;" parent="1" vertex="1">
          <mxGeometry x="160" y="209" width="55" height="61" as="geometry" />
        </mxCell>
        <mxCell id="qISsLF0tPLsLc5jUhSBc-8" style="edgeStyle=orthogonalEdgeStyle;rounded=0;orthogonalLoop=1;jettySize=auto;html=1;" parent="1" source="qISsLF0tPLsLc5jUhSBc-2" target="qISsLF0tPLsLc5jUhSBc-5" edge="1">
          <mxGeometry relative="1" as="geometry" />
        </mxCell>
        <mxCell id="qISsLF0tPLsLc5jUhSBc-9" value="Subscribe" style="edgeLabel;html=1;align=center;verticalAlign=middle;resizable=0;points=[];" parent="qISsLF0tPLsLc5jUhSBc-8" vertex="1" connectable="0">
          <mxGeometry x="-0.5382" y="-1" relative="1" as="geometry">
            <mxPoint y="1" as="offset" />
          </mxGeometry>
        </mxCell>
        <mxCell id="qISsLF0tPLsLc5jUhSBc-2" value="" style="shape=actor;whiteSpace=wrap;html=1;" parent="1" vertex="1">
          <mxGeometry x="160" y="356" width="55" height="61" as="geometry" />
        </mxCell>
        <mxCell id="qISsLF0tPLsLc5jUhSBc-3" value="User 1" style="text;html=1;strokeColor=none;fillColor=none;align=center;verticalAlign=middle;whiteSpace=wrap;rounded=0;" parent="1" vertex="1">
          <mxGeometry x="160" y="272" width="60" height="30" as="geometry" />
        </mxCell>
        <mxCell id="qISsLF0tPLsLc5jUhSBc-4" value="User 2" style="text;html=1;strokeColor=none;fillColor=none;align=center;verticalAlign=middle;whiteSpace=wrap;rounded=0;" parent="1" vertex="1">
          <mxGeometry x="160" y="419" width="60" height="30" as="geometry" />
        </mxCell>
        <mxCell id="qISsLF0tPLsLc5jUhSBc-13" style="edgeStyle=orthogonalEdgeStyle;rounded=0;orthogonalLoop=1;jettySize=auto;html=1;startArrow=classic;startFill=1;entryX=0.5;entryY=0;entryDx=0;entryDy=0;entryPerimeter=0;" parent="1" source="qISsLF0tPLsLc5jUhSBc-5" target="qISsLF0tPLsLc5jUhSBc-12" edge="1">
          <mxGeometry relative="1" as="geometry">
            <mxPoint x="463" y="487" as="targetPoint" />
          </mxGeometry>
        </mxCell>
        <mxCell id="qISsLF0tPLsLc5jUhSBc-18" value="Resolver" style="edgeLabel;html=1;align=center;verticalAlign=middle;resizable=0;points=[];" parent="qISsLF0tPLsLc5jUhSBc-13" vertex="1" connectable="0">
          <mxGeometry x="-0.1388" relative="1" as="geometry">
            <mxPoint as="offset" />
          </mxGeometry>
        </mxCell>
        <mxCell id="qISsLF0tPLsLc5jUhSBc-5" value="Room" style="shape=hexagon;perimeter=hexagonPerimeter2;whiteSpace=wrap;html=1;fixedSize=1;" parent="1" vertex="1">
          <mxGeometry x="403" y="279" width="120" height="80" as="geometry" />
        </mxCell>
        <mxCell id="qISsLF0tPLsLc5jUhSBc-12" value="Chatwave DynamoDB Table" style="sketch=0;points=[[0,0,0],[0.25,0,0],[0.5,0,0],[0.75,0,0],[1,0,0],[0,1,0],[0.25,1,0],[0.5,1,0],[0.75,1,0],[1,1,0],[0,0.25,0],[0,0.5,0],[0,0.75,0],[1,0.25,0],[1,0.5,0],[1,0.75,0]];outlineConnect=0;fontColor=#FFFFFF;gradientColor=#4D72F3;gradientDirection=north;fillColor=#3334B9;strokeColor=#ffffff;dashed=0;verticalLabelPosition=bottom;verticalAlign=top;align=center;html=1;fontSize=12;fontStyle=0;aspect=fixed;shape=mxgraph.aws4.resourceIcon;resIcon=mxgraph.aws4.dynamodb;" parent="1" vertex="1">
          <mxGeometry x="417.5" y="516" width="91" height="91" as="geometry" />
        </mxCell>
        <mxCell id="qISsLF0tPLsLc5jUhSBc-14" value="Room Actions" style="swimlane;fontStyle=0;childLayout=stackLayout;horizontal=1;startSize=30;horizontalStack=0;resizeParent=1;resizeParentMax=0;resizeLast=0;collapsible=1;marginBottom=0;whiteSpace=wrap;html=1;" parent="1" vertex="1">
          <mxGeometry x="594" y="259" width="172" height="120" as="geometry" />
        </mxCell>
        <mxCell id="qISsLF0tPLsLc5jUhSBc-15" value="newMessage (recieve)" style="text;strokeColor=none;fillColor=none;align=left;verticalAlign=middle;spacingLeft=4;spacingRight=4;overflow=hidden;points=[[0,0.5],[1,0.5]];portConstraint=eastwest;rotatable=0;whiteSpace=wrap;html=1;" parent="qISsLF0tPLsLc5jUhSBc-14" vertex="1">
          <mxGeometry y="30" width="172" height="30" as="geometry" />
        </mxCell>
        <mxCell id="qISsLF0tPLsLc5jUhSBc-16" value="createMessage" style="text;strokeColor=none;fillColor=none;align=left;verticalAlign=middle;spacingLeft=4;spacingRight=4;overflow=hidden;points=[[0,0.5],[1,0.5]];portConstraint=eastwest;rotatable=0;whiteSpace=wrap;html=1;" parent="qISsLF0tPLsLc5jUhSBc-14" vertex="1">
          <mxGeometry y="60" width="172" height="30" as="geometry" />
        </mxCell>
        <mxCell id="qISsLF0tPLsLc5jUhSBc-17" value="updateMessage?" style="text;strokeColor=none;fillColor=none;align=left;verticalAlign=middle;spacingLeft=4;spacingRight=4;overflow=hidden;points=[[0,0.5],[1,0.5]];portConstraint=eastwest;rotatable=0;whiteSpace=wrap;html=1;" parent="qISsLF0tPLsLc5jUhSBc-14" vertex="1">
          <mxGeometry y="90" width="172" height="30" as="geometry" />
        </mxCell>
      </root>
    </mxGraphModel>
  </diagram>
  <diagram id="vhEGJtjRsy9BIe09UEuW" name="PhotoUpload">
    <mxGraphModel dx="2263" dy="793" grid="0" gridSize="10" guides="1" tooltips="1" connect="1" arrows="1" fold="1" page="1" pageScale="1" pageWidth="827" pageHeight="1169" math="0" shadow="0">
      <root>
        <mxCell id="0" />
        <mxCell id="1" parent="0" />
        <mxCell id="hul9H56RDERrG_ZE1z6F-4" style="edgeStyle=orthogonalEdgeStyle;rounded=0;orthogonalLoop=1;jettySize=auto;html=1;exitX=1;exitY=0.5;exitDx=0;exitDy=0;exitPerimeter=0;entryX=0;entryY=0.5;entryDx=0;entryDy=0;entryPerimeter=0;startArrow=classic;startFill=1;" parent="1" source="hul9H56RDERrG_ZE1z6F-1" target="hul9H56RDERrG_ZE1z6F-3" edge="1">
          <mxGeometry relative="1" as="geometry" />
        </mxCell>
        <mxCell id="hul9H56RDERrG_ZE1z6F-1" value="&lt;font color=&quot;#ffffff&quot;&gt;API Gateway&lt;/font&gt;" style="sketch=0;points=[[0,0,0],[0.25,0,0],[0.5,0,0],[0.75,0,0],[1,0,0],[0,1,0],[0.25,1,0],[0.5,1,0],[0.75,1,0],[1,1,0],[0,0.25,0],[0,0.5,0],[0,0.75,0],[1,0.25,0],[1,0.5,0],[1,0.75,0]];outlineConnect=0;fontColor=#232F3E;gradientColor=#945DF2;gradientDirection=north;fillColor=#5A30B5;strokeColor=#ffffff;dashed=0;verticalLabelPosition=bottom;verticalAlign=top;align=center;html=1;fontSize=12;fontStyle=0;aspect=fixed;shape=mxgraph.aws4.resourceIcon;resIcon=mxgraph.aws4.api_gateway;" parent="1" vertex="1">
          <mxGeometry x="256" y="185" width="78" height="78" as="geometry" />
        </mxCell>
        <mxCell id="hul9H56RDERrG_ZE1z6F-3" value="&lt;font color=&quot;#ffffff&quot;&gt;Lambda Proxy&amp;nbsp;&lt;/font&gt;" style="sketch=0;points=[[0,0,0],[0.25,0,0],[0.5,0,0],[0.75,0,0],[1,0,0],[0,1,0],[0.25,1,0],[0.5,1,0],[0.75,1,0],[1,1,0],[0,0.25,0],[0,0.5,0],[0,0.75,0],[1,0.25,0],[1,0.5,0],[1,0.75,0]];outlineConnect=0;fontColor=#232F3E;gradientColor=#F78E04;gradientDirection=north;fillColor=#D05C17;strokeColor=#ffffff;dashed=0;verticalLabelPosition=bottom;verticalAlign=top;align=center;html=1;fontSize=12;fontStyle=0;aspect=fixed;shape=mxgraph.aws4.resourceIcon;resIcon=mxgraph.aws4.lambda;" parent="1" vertex="1">
          <mxGeometry x="516" y="185" width="78" height="78" as="geometry" />
        </mxCell>
        <mxCell id="hul9H56RDERrG_ZE1z6F-5" value="Get Presigned Url" style="text;html=1;strokeColor=none;fillColor=none;align=center;verticalAlign=middle;whiteSpace=wrap;rounded=0;" parent="1" vertex="1">
          <mxGeometry x="346" y="145" width="153" height="30" as="geometry" />
        </mxCell>
        <mxCell id="hul9H56RDERrG_ZE1z6F-7" style="edgeStyle=orthogonalEdgeStyle;rounded=0;orthogonalLoop=1;jettySize=auto;html=1;entryX=0;entryY=0.5;entryDx=0;entryDy=0;entryPerimeter=0;startArrow=classic;startFill=1;" parent="1" source="hul9H56RDERrG_ZE1z6F-6" target="hul9H56RDERrG_ZE1z6F-1" edge="1">
          <mxGeometry relative="1" as="geometry" />
        </mxCell>
        <mxCell id="hul9H56RDERrG_ZE1z6F-6" value="" style="shape=actor;whiteSpace=wrap;html=1;" parent="1" vertex="1">
          <mxGeometry x="43" y="181" width="72" height="86" as="geometry" />
        </mxCell>
        <mxCell id="hul9H56RDERrG_ZE1z6F-8" value="This lamdba proxy creates the presigned url and send it to the user" style="text;html=1;strokeColor=none;fillColor=none;align=center;verticalAlign=middle;whiteSpace=wrap;rounded=0;" parent="1" vertex="1">
          <mxGeometry x="590" y="213" width="212" height="30" as="geometry" />
        </mxCell>
        <mxCell id="hul9H56RDERrG_ZE1z6F-9" value="&lt;font style=&quot;font-size: 31px;&quot;&gt;1&lt;/font&gt;" style="shape=ellipse;html=1;dashed=0;whiteSpace=wrap;aspect=fixed;strokeWidth=5;perimeter=ellipsePerimeter;" parent="1" vertex="1">
          <mxGeometry x="29" y="85" width="60" height="60" as="geometry" />
        </mxCell>
        <mxCell id="hul9H56RDERrG_ZE1z6F-10" value="&lt;span style=&quot;font-size: 31px;&quot;&gt;2&lt;/span&gt;" style="shape=ellipse;html=1;dashed=0;whiteSpace=wrap;aspect=fixed;strokeWidth=5;perimeter=ellipsePerimeter;" parent="1" vertex="1">
          <mxGeometry x="29" y="352" width="60" height="60" as="geometry" />
        </mxCell>
        <mxCell id="hul9H56RDERrG_ZE1z6F-13" style="edgeStyle=orthogonalEdgeStyle;rounded=0;orthogonalLoop=1;jettySize=auto;html=1;" parent="1" source="hul9H56RDERrG_ZE1z6F-11" edge="1">
          <mxGeometry relative="1" as="geometry">
            <mxPoint x="407" y="509" as="targetPoint" />
          </mxGeometry>
        </mxCell>
        <mxCell id="hul9H56RDERrG_ZE1z6F-14" value="Upload Using Presigned URL" style="edgeLabel;html=1;align=center;verticalAlign=middle;resizable=0;points=[];" parent="hul9H56RDERrG_ZE1z6F-13" vertex="1" connectable="0">
          <mxGeometry x="-0.2243" y="-4" relative="1" as="geometry">
            <mxPoint as="offset" />
          </mxGeometry>
        </mxCell>
        <mxCell id="hul9H56RDERrG_ZE1z6F-11" value="" style="shape=actor;whiteSpace=wrap;html=1;" parent="1" vertex="1">
          <mxGeometry x="39" y="466" width="72" height="86" as="geometry" />
        </mxCell>
        <mxCell id="hul9H56RDERrG_ZE1z6F-12" value="&lt;font color=&quot;#ffffff&quot;&gt;Assets Bucket&lt;/font&gt;" style="sketch=0;points=[[0,0,0],[0.25,0,0],[0.5,0,0],[0.75,0,0],[1,0,0],[0,1,0],[0.25,1,0],[0.5,1,0],[0.75,1,0],[1,1,0],[0,0.25,0],[0,0.5,0],[0,0.75,0],[1,0.25,0],[1,0.5,0],[1,0.75,0]];outlineConnect=0;fontColor=#232F3E;gradientColor=#60A337;gradientDirection=north;fillColor=#277116;strokeColor=#ffffff;dashed=0;verticalLabelPosition=bottom;verticalAlign=top;align=center;html=1;fontSize=12;fontStyle=0;aspect=fixed;shape=mxgraph.aws4.resourceIcon;resIcon=mxgraph.aws4.s3;" parent="1" vertex="1">
          <mxGeometry x="409" y="470" width="78" height="78" as="geometry" />
        </mxCell>
        <mxCell id="hul9H56RDERrG_ZE1z6F-15" value="&lt;font style=&quot;font-size: 18px;&quot;&gt;Serverless photo upload&lt;/font&gt;" style="text;html=1;strokeColor=none;fillColor=none;align=center;verticalAlign=middle;whiteSpace=wrap;rounded=0;" parent="1" vertex="1">
          <mxGeometry x="280" y="38" width="240" height="30" as="geometry" />
        </mxCell>
        <mxCell id="nCS7qQDXoCBoPTossd7E-3" style="edgeStyle=orthogonalEdgeStyle;rounded=0;orthogonalLoop=1;jettySize=auto;html=1;exitX=0.5;exitY=1;exitDx=0;exitDy=0;" parent="1" target="nCS7qQDXoCBoPTossd7E-2" edge="1">
          <mxGeometry relative="1" as="geometry">
            <mxPoint x="1035.5" y="294" as="sourcePoint" />
          </mxGeometry>
        </mxCell>
        <mxCell id="nCS7qQDXoCBoPTossd7E-4" value="Clicks Send" style="edgeLabel;html=1;align=center;verticalAlign=middle;resizable=0;points=[];" parent="nCS7qQDXoCBoPTossd7E-3" vertex="1" connectable="0">
          <mxGeometry x="-0.2571" y="-2" relative="1" as="geometry">
            <mxPoint as="offset" />
          </mxGeometry>
        </mxCell>
        <mxCell id="nCS7qQDXoCBoPTossd7E-16" style="edgeStyle=orthogonalEdgeStyle;rounded=0;orthogonalLoop=1;jettySize=auto;html=1;entryX=0.5;entryY=0;entryDx=0;entryDy=0;entryPerimeter=0;" parent="1" source="nCS7qQDXoCBoPTossd7E-2" target="nCS7qQDXoCBoPTossd7E-15" edge="1">
          <mxGeometry relative="1" as="geometry" />
        </mxCell>
        <mxCell id="nCS7qQDXoCBoPTossd7E-2" value="" style="html=1;verticalLabelPosition=bottom;align=center;labelBackgroundColor=#ffffff;verticalAlign=top;strokeWidth=2;strokeColor=#0080F0;shadow=0;dashed=0;shape=mxgraph.ios7.icons.pointer;" parent="1" vertex="1">
          <mxGeometry x="1009" y="399" width="53" height="57" as="geometry" />
        </mxCell>
        <mxCell id="nCS7qQDXoCBoPTossd7E-8" style="edgeStyle=orthogonalEdgeStyle;rounded=0;orthogonalLoop=1;jettySize=auto;html=1;" parent="1" source="nCS7qQDXoCBoPTossd7E-6" edge="1">
          <mxGeometry relative="1" as="geometry">
            <mxPoint x="1035.5" y="203" as="targetPoint" />
          </mxGeometry>
        </mxCell>
        <mxCell id="nCS7qQDXoCBoPTossd7E-9" value="Clicks" style="edgeLabel;html=1;align=center;verticalAlign=middle;resizable=0;points=[];" parent="nCS7qQDXoCBoPTossd7E-8" vertex="1" connectable="0">
          <mxGeometry x="0.1482" y="-5" relative="1" as="geometry">
            <mxPoint as="offset" />
          </mxGeometry>
        </mxCell>
        <mxCell id="nCS7qQDXoCBoPTossd7E-6" value="User" style="shape=actor;whiteSpace=wrap;html=1;labelPosition=right;verticalLabelPosition=middle;align=left;verticalAlign=middle;" parent="1" vertex="1">
          <mxGeometry x="999.5" y="19" width="72" height="86" as="geometry" />
        </mxCell>
        <mxCell id="nCS7qQDXoCBoPTossd7E-7" value="Image Icon" style="ellipse;whiteSpace=wrap;html=1;aspect=fixed;" parent="1" vertex="1">
          <mxGeometry x="995.5" y="205" width="80" height="80" as="geometry" />
        </mxCell>
        <mxCell id="nCS7qQDXoCBoPTossd7E-12" value="&lt;font style=&quot;font-size: 31px;&quot;&gt;1&lt;/font&gt;" style="shape=ellipse;html=1;dashed=0;whiteSpace=wrap;aspect=fixed;strokeWidth=5;perimeter=ellipsePerimeter;" parent="1" vertex="1">
          <mxGeometry x="1093" y="230" width="37" height="37" as="geometry" />
        </mxCell>
        <mxCell id="nCS7qQDXoCBoPTossd7E-14" value="&lt;font style=&quot;font-size: 31px;&quot;&gt;2&lt;/font&gt;" style="shape=ellipse;html=1;dashed=0;whiteSpace=wrap;aspect=fixed;strokeWidth=5;perimeter=ellipsePerimeter;" parent="1" vertex="1">
          <mxGeometry x="1095" y="392" width="37" height="37" as="geometry" />
        </mxCell>
        <mxCell id="nCS7qQDXoCBoPTossd7E-22" style="edgeStyle=orthogonalEdgeStyle;rounded=0;orthogonalLoop=1;jettySize=auto;html=1;entryX=1;entryY=0.5;entryDx=0;entryDy=0;entryPerimeter=0;" parent="1" source="nCS7qQDXoCBoPTossd7E-15" target="nCS7qQDXoCBoPTossd7E-21" edge="1">
          <mxGeometry relative="1" as="geometry" />
        </mxCell>
        <mxCell id="nCS7qQDXoCBoPTossd7E-23" value="Upload Image Location" style="edgeLabel;html=1;align=center;verticalAlign=middle;resizable=0;points=[];" parent="nCS7qQDXoCBoPTossd7E-22" vertex="1" connectable="0">
          <mxGeometry x="0.0465" relative="1" as="geometry">
            <mxPoint x="1" as="offset" />
          </mxGeometry>
        </mxCell>
        <mxCell id="nCS7qQDXoCBoPTossd7E-15" value="&lt;font color=&quot;#ffffff&quot;&gt;AppSync&lt;/font&gt;" style="sketch=0;points=[[0,0,0],[0.25,0,0],[0.5,0,0],[0.75,0,0],[1,0,0],[0,1,0],[0.25,1,0],[0.5,1,0],[0.75,1,0],[1,1,0],[0,0.25,0],[0,0.5,0],[0,0.75,0],[1,0.25,0],[1,0.5,0],[1,0.75,0]];outlineConnect=0;fontColor=#232F3E;gradientColor=#FF4F8B;gradientDirection=north;fillColor=#BC1356;strokeColor=#ffffff;dashed=0;verticalLabelPosition=bottom;verticalAlign=top;align=center;html=1;fontSize=12;fontStyle=0;aspect=fixed;shape=mxgraph.aws4.resourceIcon;resIcon=mxgraph.aws4.appsync;" parent="1" vertex="1">
          <mxGeometry x="996.5" y="587" width="78" height="78" as="geometry" />
        </mxCell>
        <mxCell id="nCS7qQDXoCBoPTossd7E-18" value="This should return the uuid(key) of the image" style="text;html=1;strokeColor=none;fillColor=none;align=center;verticalAlign=middle;whiteSpace=wrap;rounded=0;" parent="1" vertex="1">
          <mxGeometry x="-28" y="282" width="218" height="30" as="geometry" />
        </mxCell>
        <mxCell id="nCS7qQDXoCBoPTossd7E-21" value="&lt;font color=&quot;#ffffff&quot;&gt;DynamoDB&lt;/font&gt;" style="sketch=0;points=[[0,0,0],[0.25,0,0],[0.5,0,0],[0.75,0,0],[1,0,0],[0,1,0],[0.25,1,0],[0.5,1,0],[0.75,1,0],[1,1,0],[0,0.25,0],[0,0.5,0],[0,0.75,0],[1,0.25,0],[1,0.5,0],[1,0.75,0]];outlineConnect=0;fontColor=#232F3E;gradientColor=#4D72F3;gradientDirection=north;fillColor=#3334B9;strokeColor=#ffffff;dashed=0;verticalLabelPosition=bottom;verticalAlign=top;align=center;html=1;fontSize=12;fontStyle=0;aspect=fixed;shape=mxgraph.aws4.resourceIcon;resIcon=mxgraph.aws4.dynamodb;" parent="1" vertex="1">
          <mxGeometry x="671" y="587" width="78" height="78" as="geometry" />
        </mxCell>
      </root>
    </mxGraphModel>
  </diagram>
  <diagram id="pzhIFOIKJwnwrZR5nga3" name="Architecture">
    <mxGraphModel dx="1436" dy="793" grid="0" gridSize="10" guides="1" tooltips="1" connect="1" arrows="1" fold="1" page="1" pageScale="1" pageWidth="827" pageHeight="1169" math="0" shadow="0">
      <root>
        <mxCell id="0" />
        <mxCell id="1" parent="0" />
        <mxCell id="4lYCoh92sYJjliyoOs-s-1" value="AWS Cloud" style="points=[[0,0],[0.25,0],[0.5,0],[0.75,0],[1,0],[1,0.25],[1,0.5],[1,0.75],[1,1],[0.75,1],[0.5,1],[0.25,1],[0,1],[0,0.75],[0,0.5],[0,0.25]];outlineConnect=0;html=1;whiteSpace=wrap;fontSize=12;fontStyle=0;container=1;pointerEvents=0;collapsible=0;recursiveResize=0;shape=mxgraph.aws4.group;grIcon=mxgraph.aws4.group_aws_cloud_alt;strokeColor=#006EAF;fillColor=none;verticalAlign=top;align=left;spacingLeft=30;fontColor=#ffffff;dashed=0;" parent="1" vertex="1">
          <mxGeometry x="128" y="61" width="636" height="620" as="geometry" />
        </mxCell>
        <mxCell id="4lYCoh92sYJjliyoOs-s-5" style="edgeStyle=orthogonalEdgeStyle;rounded=0;orthogonalLoop=1;jettySize=auto;html=1;" parent="4lYCoh92sYJjliyoOs-s-1" source="4lYCoh92sYJjliyoOs-s-3" target="4lYCoh92sYJjliyoOs-s-4" edge="1">
          <mxGeometry relative="1" as="geometry" />
        </mxCell>
        <mxCell id="qog8aJltSAEjkfZXyRVJ-10" style="edgeStyle=orthogonalEdgeStyle;rounded=0;orthogonalLoop=1;jettySize=auto;html=1;entryX=0;entryY=0.5;entryDx=0;entryDy=0;entryPerimeter=0;" parent="4lYCoh92sYJjliyoOs-s-1" source="4lYCoh92sYJjliyoOs-s-3" target="qog8aJltSAEjkfZXyRVJ-9" edge="1">
          <mxGeometry relative="1" as="geometry">
            <Array as="points">
              <mxPoint x="87" y="176" />
              <mxPoint x="86" y="176" />
              <mxPoint x="86" y="82" />
            </Array>
          </mxGeometry>
        </mxCell>
        <mxCell id="4lYCoh92sYJjliyoOs-s-3" value="Cognito Authentication" style="sketch=0;points=[[0,0,0],[0.25,0,0],[0.5,0,0],[0.75,0,0],[1,0,0],[0,1,0],[0.25,1,0],[0.5,1,0],[0.75,1,0],[1,1,0],[0,0.25,0],[0,0.5,0],[0,0.75,0],[1,0.25,0],[1,0.5,0],[1,0.75,0]];outlineConnect=0;fontColor=#FFFFFF;gradientColor=#F54749;gradientDirection=north;fillColor=#C7131F;strokeColor=#ffffff;dashed=0;verticalLabelPosition=bottom;verticalAlign=top;align=center;html=1;fontSize=12;fontStyle=0;aspect=fixed;shape=mxgraph.aws4.resourceIcon;resIcon=mxgraph.aws4.cognito;" parent="4lYCoh92sYJjliyoOs-s-1" vertex="1">
          <mxGeometry x="48" y="284" width="78" height="78" as="geometry" />
        </mxCell>
        <mxCell id="4lYCoh92sYJjliyoOs-s-7" style="edgeStyle=orthogonalEdgeStyle;rounded=0;orthogonalLoop=1;jettySize=auto;html=1;entryX=0;entryY=0.5;entryDx=0;entryDy=0;entryPerimeter=0;startArrow=classic;startFill=1;" parent="4lYCoh92sYJjliyoOs-s-1" source="4lYCoh92sYJjliyoOs-s-4" target="4lYCoh92sYJjliyoOs-s-6" edge="1">
          <mxGeometry relative="1" as="geometry" />
        </mxCell>
        <mxCell id="4lYCoh92sYJjliyoOs-s-4" value="Chatwave Static Frontend" style="sketch=0;points=[[0,0,0],[0.25,0,0],[0.5,0,0],[0.75,0,0],[1,0,0],[0,1,0],[0.25,1,0],[0.5,1,0],[0.75,1,0],[1,1,0],[0,0.25,0],[0,0.5,0],[0,0.75,0],[1,0.25,0],[1,0.5,0],[1,0.75,0]];outlineConnect=0;fontColor=#FFFFFF;gradientColor=#60A337;gradientDirection=north;fillColor=#277116;strokeColor=#ffffff;dashed=0;verticalLabelPosition=bottom;verticalAlign=top;align=center;html=1;fontSize=12;fontStyle=0;aspect=fixed;shape=mxgraph.aws4.resourceIcon;resIcon=mxgraph.aws4.s3;" parent="4lYCoh92sYJjliyoOs-s-1" vertex="1">
          <mxGeometry x="216" y="284" width="78" height="78" as="geometry" />
        </mxCell>
        <mxCell id="4lYCoh92sYJjliyoOs-s-9" style="edgeStyle=orthogonalEdgeStyle;rounded=0;orthogonalLoop=1;jettySize=auto;html=1;entryX=0.5;entryY=1;entryDx=0;entryDy=0;entryPerimeter=0;startArrow=classic;startFill=1;" parent="4lYCoh92sYJjliyoOs-s-1" source="4lYCoh92sYJjliyoOs-s-6" target="4lYCoh92sYJjliyoOs-s-8" edge="1">
          <mxGeometry relative="1" as="geometry" />
        </mxCell>
        <mxCell id="4lYCoh92sYJjliyoOs-s-11" value="data source resolvers" style="edgeLabel;html=1;align=center;verticalAlign=middle;resizable=0;points=[];" parent="4lYCoh92sYJjliyoOs-s-9" vertex="1" connectable="0">
          <mxGeometry x="-0.0184" y="1" relative="1" as="geometry">
            <mxPoint as="offset" />
          </mxGeometry>
        </mxCell>
        <mxCell id="4lYCoh92sYJjliyoOs-s-6" value="&lt;font color=&quot;#ffffff&quot;&gt;AppSync GraphQL API&lt;/font&gt;" style="sketch=0;points=[[0,0,0],[0.25,0,0],[0.5,0,0],[0.75,0,0],[1,0,0],[0,1,0],[0.25,1,0],[0.5,1,0],[0.75,1,0],[1,1,0],[0,0.25,0],[0,0.5,0],[0,0.75,0],[1,0.25,0],[1,0.5,0],[1,0.75,0]];outlineConnect=0;fontColor=#232F3E;gradientColor=#FF4F8B;gradientDirection=north;fillColor=#BC1356;strokeColor=#ffffff;dashed=0;verticalLabelPosition=bottom;verticalAlign=top;align=center;html=1;fontSize=12;fontStyle=0;aspect=fixed;shape=mxgraph.aws4.resourceIcon;resIcon=mxgraph.aws4.appsync;" parent="4lYCoh92sYJjliyoOs-s-1" vertex="1">
          <mxGeometry x="384" y="284" width="78" height="78" as="geometry" />
        </mxCell>
        <mxCell id="4lYCoh92sYJjliyoOs-s-8" value="DynamoDB Data Source" style="sketch=0;points=[[0,0,0],[0.25,0,0],[0.5,0,0],[0.75,0,0],[1,0,0],[0,1,0],[0.25,1,0],[0.5,1,0],[0.75,1,0],[1,1,0],[0,0.25,0],[0,0.5,0],[0,0.75,0],[1,0.25,0],[1,0.5,0],[1,0.75,0]];outlineConnect=0;fontColor=#ffffff;gradientColor=#4D72F3;gradientDirection=north;fillColor=#3334B9;strokeColor=#ffffff;dashed=0;verticalLabelPosition=top;verticalAlign=bottom;align=center;html=1;fontSize=12;fontStyle=0;aspect=fixed;shape=mxgraph.aws4.resourceIcon;resIcon=mxgraph.aws4.dynamodb;labelPosition=center;" parent="4lYCoh92sYJjliyoOs-s-1" vertex="1">
          <mxGeometry x="384" y="43" width="78" height="78" as="geometry" />
        </mxCell>
        <mxCell id="4lYCoh92sYJjliyoOs-s-10" value="&lt;font color=&quot;#ffffff&quot;&gt;assets bucket (photos)&lt;/font&gt;" style="sketch=0;points=[[0,0,0],[0.25,0,0],[0.5,0,0],[0.75,0,0],[1,0,0],[0,1,0],[0.25,1,0],[0.5,1,0],[0.75,1,0],[1,1,0],[0,0.25,0],[0,0.5,0],[0,0.75,0],[1,0.25,0],[1,0.5,0],[1,0.75,0]];outlineConnect=0;fontColor=#232F3E;gradientColor=#60A337;gradientDirection=north;fillColor=#277116;strokeColor=#ffffff;dashed=0;verticalLabelPosition=bottom;verticalAlign=top;align=center;html=1;fontSize=12;fontStyle=0;aspect=fixed;shape=mxgraph.aws4.resourceIcon;resIcon=mxgraph.aws4.s3;" parent="4lYCoh92sYJjliyoOs-s-1" vertex="1">
          <mxGeometry x="384" y="473" width="78" height="78" as="geometry" />
        </mxCell>
        <mxCell id="qog8aJltSAEjkfZXyRVJ-6" style="edgeStyle=orthogonalEdgeStyle;rounded=0;orthogonalLoop=1;jettySize=auto;html=1;" parent="4lYCoh92sYJjliyoOs-s-1" source="qog8aJltSAEjkfZXyRVJ-4" target="4lYCoh92sYJjliyoOs-s-10" edge="1">
          <mxGeometry relative="1" as="geometry" />
        </mxCell>
        <mxCell id="qog8aJltSAEjkfZXyRVJ-7" value="Upload&amp;nbsp; photos to bucket" style="edgeLabel;html=1;align=center;verticalAlign=middle;resizable=0;points=[];" parent="qog8aJltSAEjkfZXyRVJ-6" vertex="1" connectable="0">
          <mxGeometry x="-0.0261" y="-7" relative="1" as="geometry">
            <mxPoint as="offset" />
          </mxGeometry>
        </mxCell>
        <mxCell id="qog8aJltSAEjkfZXyRVJ-4" value="Generate Presigned s3 url" style="sketch=0;points=[[0,0,0],[0.25,0,0],[0.5,0,0],[0.75,0,0],[1,0,0],[0,1,0],[0.25,1,0],[0.5,1,0],[0.75,1,0],[1,1,0],[0,0.25,0],[0,0.5,0],[0,0.75,0],[1,0.25,0],[1,0.5,0],[1,0.75,0]];outlineConnect=0;fontColor=#FFFFFF;gradientColor=#F78E04;gradientDirection=north;fillColor=#D05C17;strokeColor=#ffffff;dashed=0;verticalLabelPosition=bottom;verticalAlign=top;align=center;html=1;fontSize=12;fontStyle=0;aspect=fixed;shape=mxgraph.aws4.resourceIcon;resIcon=mxgraph.aws4.lambda;labelBackgroundColor=default;" parent="4lYCoh92sYJjliyoOs-s-1" vertex="1">
          <mxGeometry x="48" y="470" width="84" height="84" as="geometry" />
        </mxCell>
        <mxCell id="qog8aJltSAEjkfZXyRVJ-11" style="edgeStyle=orthogonalEdgeStyle;rounded=0;orthogonalLoop=1;jettySize=auto;html=1;" parent="4lYCoh92sYJjliyoOs-s-1" source="qog8aJltSAEjkfZXyRVJ-9" target="4lYCoh92sYJjliyoOs-s-8" edge="1">
          <mxGeometry relative="1" as="geometry" />
        </mxCell>
        <mxCell id="qog8aJltSAEjkfZXyRVJ-12" value="Add&amp;nbsp; user to ddb" style="edgeLabel;html=1;align=center;verticalAlign=middle;resizable=0;points=[];" parent="qog8aJltSAEjkfZXyRVJ-11" vertex="1" connectable="0">
          <mxGeometry x="0.2381" y="3" relative="1" as="geometry">
            <mxPoint x="-28" y="3" as="offset" />
          </mxGeometry>
        </mxCell>
        <mxCell id="qog8aJltSAEjkfZXyRVJ-9" value="PostSignUpHook" style="sketch=0;points=[[0,0,0],[0.25,0,0],[0.5,0,0],[0.75,0,0],[1,0,0],[0,1,0],[0.25,1,0],[0.5,1,0],[0.75,1,0],[1,1,0],[0,0.25,0],[0,0.5,0],[0,0.75,0],[1,0.25,0],[1,0.5,0],[1,0.75,0]];outlineConnect=0;fontColor=#FFFFFF;gradientColor=#F78E04;gradientDirection=north;fillColor=#D05C17;strokeColor=#ffffff;dashed=0;verticalLabelPosition=bottom;verticalAlign=top;align=center;html=1;fontSize=12;fontStyle=0;aspect=fixed;shape=mxgraph.aws4.resourceIcon;resIcon=mxgraph.aws4.lambda;" parent="4lYCoh92sYJjliyoOs-s-1" vertex="1">
          <mxGeometry x="138" y="43" width="78" height="78" as="geometry" />
        </mxCell>
        <mxCell id="qog8aJltSAEjkfZXyRVJ-2" style="edgeStyle=orthogonalEdgeStyle;rounded=0;orthogonalLoop=1;jettySize=auto;html=1;" parent="1" source="qog8aJltSAEjkfZXyRVJ-1" target="4lYCoh92sYJjliyoOs-s-3" edge="1">
          <mxGeometry relative="1" as="geometry" />
        </mxCell>
        <mxCell id="qog8aJltSAEjkfZXyRVJ-5" style="edgeStyle=orthogonalEdgeStyle;rounded=0;orthogonalLoop=1;jettySize=auto;html=1;entryX=0;entryY=0.5;entryDx=0;entryDy=0;entryPerimeter=0;" parent="1" source="qog8aJltSAEjkfZXyRVJ-1" target="qog8aJltSAEjkfZXyRVJ-4" edge="1">
          <mxGeometry relative="1" as="geometry">
            <mxPoint x="185" y="821" as="targetPoint" />
            <Array as="points">
              <mxPoint x="55" y="573" />
            </Array>
          </mxGeometry>
        </mxCell>
        <mxCell id="qog8aJltSAEjkfZXyRVJ-1" value="" style="shape=actor;whiteSpace=wrap;html=1;" parent="1" vertex="1">
          <mxGeometry x="19" y="341" width="72" height="86" as="geometry" />
        </mxCell>
      </root>
    </mxGraphModel>
  </diagram>
</mxfile>
